<svg xmlns="http://www.w3.org/2000/svg" xmlns:xlink="http://www.w3.org/1999/xlink" width="1584" zoomAndPan="magnify" viewBox="0 0 1188 296.999993" height="396" preserveAspectRatio="xMidYMid meet" version="1.0"><defs><clipPath id="fc2d91657f"><path d="M 0 32 L 1188 32 L 1188 297 L 0 297 Z M 0 32 " clip-rule="nonzero"/></clipPath><clipPath id="3b550fda42"><path d="M -54.480469 288.449219 L 1187.460938 -0.00390625 L 1265.34375 335.320312 L 23.402344 623.773438 Z M -54.480469 288.449219 " clip-rule="nonzero"/></clipPath><clipPath id="4eb78f6deb"><path d="M -54.480469 288.449219 L 1187.460938 -0.00390625 L 1265.34375 335.320312 L 23.402344 623.773438 Z M -54.480469 288.449219 " clip-rule="nonzero"/></clipPath></defs><g clip-path="url(#fc2d91657f)"><g clip-path="url(#3b550fda42)"><g clip-path="url(#4eb78f6deb)"><path fill="#20468f" d="M 116.632812 249.980469 C 166.964844 239.394531 219.910156 275.167969 270.238281 264.582031 C 327.8125 252.472656 366.757812 190.625 424.332031 178.515625 C 474.664062 167.929688 527.605469 203.703125 577.9375 193.117188 C 635.507812 181.007812 674.453125 119.160156 732.027344 107.050781 C 782.359375 96.464844 835.300781 132.234375 885.632812 121.648438 C 943.207031 109.542969 982.152344 47.695312 1039.722656 35.585938 C 1090.054688 25 1193.328125 50.183594 1193.328125 50.183594 L 1259.59375 335.488281 C 1259.59375 335.488281 1156.320312 310.300781 1105.988281 320.886719 C 1048.414062 332.996094 1009.46875 394.84375 951.898438 406.953125 C 901.566406 417.539062 848.621094 381.765625 798.292969 392.351562 C 740.71875 404.460938 701.773438 466.308594 644.199219 478.417969 C 593.871094 489.007812 540.925781 453.234375 490.59375 463.820312 C 433.023438 475.925781 394.078125 537.773438 336.503906 549.882812 C 286.171875 560.472656 233.230469 524.699219 182.898438 535.285156 C 125.324219 547.394531 28.808594 621.351562 28.808594 621.351562 L -37.457031 336.046875 C -2.179688 285.191406 59.0625 262.089844 116.632812 249.980469 Z M 116.632812 249.980469 " fill-opacity="1" fill-rule="nonzero"/></g></g></g></svg>